<?xml version="1.0" encoding="UTF-8"?>
<!-- Generator: Adobe Illustrator 27.5.0, SVG Export Plug-In . SVG Version: 6.00 Build 0)  -->
<svg version="1.1" id="Layer_1" xmlns="http://www.w3.org/2000/svg" xmlns:xlink="http://www.w3.org/1999/xlink" x="0px" y="0px" viewBox="0 0 120 42" width="180" height="82" style="enable-background:new 0 0 120 42;" xml:space="preserve">
<style type="text/css">
	.st0{fill:#DF252D;}
	.st1{enable-background:new    ;}
</style>
<rect x="1.7" y="16.6" transform="matrix(0.7071 -0.7071 0.7071 0.7071 -12.9389 10.2356)" class="st0" width="8.3" height="8.3"/>
<rect x="14.4" y="17.4" transform="matrix(0.7071 -0.7071 0.7071 0.7071 -9.477 18.5967)" width="6.7" height="6.7"/>
<rect x="9" y="12.4" transform="matrix(0.7071 -0.7071 0.7071 0.7071 -7.5051 13.3682)" width="6.7" height="6.7"/>
<rect x="9" y="22.7" transform="matrix(0.7071 -0.7071 0.7071 0.7071 -14.8037 16.389)" width="6.7" height="6.7"/>
<g>
	<path d="M27.3,22.6l4.4-5.3v-0.2h-4.2V16H33v1.7L28.6,23v0.2H33v1.2h-5.7V22.6z"/>
	<path d="M34.1,22.6c0-1.2,1-1.8,2.2-1.8h1.8v-0.4c0-0.7-0.4-1.1-1.3-1.1c-0.8,0-1.3,0.4-1.4,1.1L34.3,20c0.3-0.9,1.1-1.7,2.6-1.7   c1.5,0,2.5,0.8,2.5,2.2v2.4c0,0.2,0.1,0.4,0.3,0.4h0.5v1h-0.9c-0.5,0-0.9-0.3-0.9-0.8v0h-0.2c-0.2,0.4-0.6,1-1.8,1   C35,24.5,34.1,23.8,34.1,22.6z M38.1,21.9v-0.1h-1.7c-0.7,0-1.1,0.3-1.1,0.8c0,0.5,0.4,0.9,1.2,0.9C37.5,23.5,38.1,22.9,38.1,21.9z   "/>
	<path d="M42,19.5h-1.6v-1H42v-1.3c0-0.7,0.5-1.2,1.2-1.2h1.5v1h-1.1c-0.2,0-0.3,0.1-0.3,0.4v1.1h1.7v1h-1.7v4.8H42V19.5z"/>
	<path d="M45.6,21.4v-0.1c0-1.8,1.2-3,2.9-3c1.7,0,2.8,1.2,2.8,3v0.5h-4.5c0,1,0.8,1.7,1.7,1.7c0.9,0,1.3-0.5,1.6-1l1,0.5   c-0.4,0.7-1,1.6-2.6,1.6C46.8,24.5,45.6,23.3,45.6,21.4z M50.2,20.8c-0.1-0.9-0.7-1.4-1.6-1.4c-0.9,0-1.5,0.5-1.7,1.4H50.2z"/>
	<path d="M52.9,18.4h1.2v0.7h0.2c0.2-0.5,0.6-0.7,1.2-0.7h0.7v1.1h-0.8c-0.8,0-1.4,0.4-1.4,1.3v3.5h-1.2V18.4z"/>
	<path d="M57,21.5v-0.2c0-1.9,1.3-3,3-3c1.8,0,3,1.2,3,3v0.2c0,1.9-1.3,3-3,3C58.3,24.5,57,23.3,57,21.5z M61.8,21.4v-0.1   c0-1.2-0.7-2-1.8-2c-1.1,0-1.8,0.7-1.8,2v0.1c0,1.2,0.7,2,1.8,2S61.8,22.6,61.8,21.4z"/>
	<path d="M64.3,21.2c0-1.8,1.2-3,2.7-3c1.1,0,1.7,0.5,2,1h0.2v-0.8h1.2v7.1c0,0.7-0.5,1.2-1.2,1.2h-4v-1.1h3.6   c0.2,0,0.3-0.1,0.3-0.4v-1.9H69c-0.3,0.5-0.8,1-2,1c-1.5,0-2.7-1.1-2.7-2.9V21.2z M69.2,21.4v-0.1c0-1.2-0.8-1.9-1.8-1.9   c-1.1,0-1.8,0.7-1.8,1.9v0.1c0,1.2,0.8,1.9,1.8,1.9C68.4,23.3,69.2,22.6,69.2,21.4z M65.7,16.1L65.7,16.1l1-0.1v0.1   c0,0.5,0.3,0.8,0.8,0.8c0.6,0,0.8-0.4,0.8-0.8V16h1v0.1c0,1-0.7,1.7-1.9,1.7C66.4,17.8,65.7,17.1,65.7,16.1z"/>
	<path d="M72.2,16h1.2v8.3h-1.2V16z"/>
	<path d="M75.2,22v-3.5h1.2v3.4c0,1,0.5,1.5,1.4,1.5c1,0,1.7-0.7,1.7-2v-3h1.2v5.9h-1.2v-0.9h-0.2c-0.2,0.5-0.7,1-1.9,1   C76.2,24.4,75.2,23.5,75.2,22z"/>
	<path d="M85.3,14.5c0-0.5,0.4-0.8,0.8-0.8c0.5,0,0.8,0.3,0.8,0.8s-0.4,0.8-0.8,0.8C85.7,15.3,85.3,15,85.3,14.5z M85.6,16h1.3v8.3   h-1.3V16z"/>
	<path d="M88.6,18.4h1.2v0.9H90c0.2-0.5,0.7-1,1.9-1c1.3,0,2.3,0.9,2.3,2.4v3.5h-1.2v-3.4c0-1-0.5-1.5-1.4-1.5c-1,0-1.7,0.7-1.7,2v3   h-1.2V18.4z"/>
	<path d="M96.9,26.5l0.3-0.8c0.3,0.1,0.6,0.2,1,0.2c0.3,0,0.6-0.1,0.6-0.4c0-0.2-0.2-0.4-0.6-0.4h-0.5l0.1-0.8c-1.2-0.1-2-0.8-2.2-2   l1.1-0.3c0.2,1,0.8,1.3,1.6,1.3c0.8,0,1.2-0.3,1.2-0.8c0-0.5-0.4-0.7-1.2-0.8L98,21.8c-1.2-0.2-2.1-0.7-2.1-1.8s0.9-1.7,2.3-1.7   c1.3,0,2.2,0.6,2.5,1.7l-1.1,0.3c-0.1-0.7-0.6-1-1.3-1c-0.7,0-1.1,0.3-1.1,0.7c0,0.5,0.4,0.7,1,0.8l0.4,0.1   c1.3,0.2,2.3,0.6,2.3,1.8c0,1.1-0.8,1.7-2.1,1.8l0,0.3c0.6,0,1.1,0.3,1.1,1c0,0.7-0.7,1-1.4,1C97.7,26.8,97.2,26.7,96.9,26.5z"/>
	<path d="M101.7,22.6c0-1.2,1-1.8,2.2-1.8h1.8v-0.4c0-0.7-0.4-1.1-1.3-1.1c-0.8,0-1.3,0.4-1.4,1.1L102,20c0.3-0.9,1.1-1.7,2.6-1.7   c1.5,0,2.5,0.8,2.5,2.2v2.4c0,0.2,0.1,0.4,0.3,0.4h0.5v1h-0.9c-0.5,0-0.9-0.3-0.9-0.8v0h-0.2c-0.2,0.4-0.6,1-1.8,1   C102.7,24.5,101.7,23.8,101.7,22.6z M105.8,21.9v-0.1h-1.7c-0.7,0-1.1,0.3-1.1,0.8c0,0.5,0.4,0.9,1.2,0.9   C105.1,23.5,105.8,22.9,105.8,21.9z"/>
	<path d="M108.6,22.6c0-1.2,1-1.8,2.2-1.8h1.8v-0.4c0-0.7-0.4-1.1-1.3-1.1c-0.8,0-1.3,0.4-1.4,1.1l-1.1-0.4c0.3-0.9,1.1-1.7,2.6-1.7   c1.5,0,2.5,0.8,2.5,2.2v2.4c0,0.2,0.1,0.4,0.3,0.4h0.5v1h-0.9c-0.5,0-0.9-0.3-0.9-0.8v0h-0.2c-0.2,0.4-0.6,1-1.8,1   C109.6,24.5,108.6,23.8,108.6,22.6z M112.6,21.9v-0.1h-1.7c-0.7,0-1.1,0.3-1.1,0.8c0,0.5,0.4,0.9,1.2,0.9   C112,23.5,112.6,22.9,112.6,21.9z"/>
	<path d="M116.5,23.1v-3.7h-1.6v-1h1.6v-1.9h1.2v1.9h1.7v1h-1.7v3.4c0,0.2,0.1,0.4,0.3,0.4h1.2v1h-1.6   C116.9,24.3,116.5,23.9,116.5,23.1z"/>
</g>
<g class="st1">
</g>
<script xmlns="" id="bw-fido2-page-script"/></svg>