<svg xmlns="http://www.w3.org/2000/svg" fill="none" viewBox="0 0 562 596">
  <path fill="#fff" d="M284.234 89.953c18.963-2.4094 38.63-1.1947 56.706 5.2746 13.661 4.9284 26.565 13.4144 34.377 25.8974 4.955 7.812 7.409 17.093 7.3 26.328-.109 8.432.904 17.329-2.911 25.177-7.026 15.048-22.386 24.448-38.026 28.444 14.117 2.875 28.142 8.879 38.062 19.639 7.575 7.921 11.91 18.844 11.754 29.823-.174 10.649 1.068 21.6-2.372 31.893-4.582 14.692-15.596 26.647-28.664 34.412-18.416 11.08-40.371 14.929-61.635 14.356-17.84-.512-36.1-3.615-51.805-12.485-12.876-7.063-23.379-18.424-29.138-31.958-3.33-7.52-5.274-15.596-6.205-23.753 18.105 0 36.201 0 54.307.008.957 7.804 4.608 15.469 10.968 20.269 8.196 6.332 19.128 7.492 29.138 6.652 8.97-.776 18.37-4.589 23.307-12.502 4.663-7.099 4.708-15.906 4.517-24.091.255-7.556-2.436-15.449-8.268-20.468-7.117-6.216-16.726-8.469-25.908-9.281-8.441-.53-16.9-.128-25.35-.32-.119-12.912-.046-25.826-.036-38.73 10.905-.354 22.028 1.023 32.714-1.752 6.799-1.805 13.607-5.802 16.49-12.51 2.72-5.712 1.998-12.164 2.081-18.288-.028-5.648-1.579-11.644-5.759-15.678-5.702-5.712-14.244-7.226-22.018-7.036-7.676-.081-15.724 2.319-21.136 7.967-4.964 4.928-7.438 11.855-8.031 18.727-18.104.136-36.219.026-54.333.054.621-16.481 8.232-32.35 20.113-43.693 13.441-12.868 31.528-19.904 49.761-22.376ZM175.203 460.049c9.198-.018 18.406.036 27.613-.018 5.915 23.516 11.891 47.033 17.667 70.586 6.27-23.517 12.448-47.052 18.681-70.577 8.888.037 17.776-.019 26.673.028.019 29.275 0 58.549 0 87.833-6.936-.009-13.88-.018-20.814.01-.047-13.972-.01-27.944-.028-41.915-.055-4.736.201-9.491-.366-14.208-4.361 18.789-9.626 37.368-14.317 56.085-6.917.028-13.835.028-20.752.01-5.073-19.556-10.339-39.067-15.395-58.624-.265 19.53-.036 39.077-.109 58.614-6.288.028-12.576.028-18.863.01.01-29.275-.018-58.55.01-87.834Zm141.582 14.51c-2.993 12.584-5.977 25.177-8.879 37.789 5.995.045 12 .017 17.995.017-3.011-12.612-6.123-25.194-9.116-37.806Zm-39.705 73.314c8.396-29.265 16.745-58.549 25.105-87.824 9.745.174 19.628-.32 29.284.238 8.905 29.165 17.684 58.394 26.427 87.624-7.456-.028-14.912.009-22.359-.038-1.751-6.405-3.549-12.793-5.375-19.181-8.76.017-17.529.045-26.29-.019-1.706 6.388-3.248 12.822-4.918 19.219-7.292 0-14.583.019-21.874-.019Zm89.913-87.806c7.995-.036 15.979-.018 23.972-.009 4.947 9.28 9.876 18.58 14.758 27.896 5.457-9.107 10.174-18.643 15.366-27.905 7.739-.01 15.479.009 23.216 0-8.277 13.196-16.664 26.336-24.93 39.541 9.216 16.107 18.452 32.204 27.704 48.283-8.258.037-16.526.037-24.784-.008-5.219-10.378-10.595-20.67-15.824-31.038-.366-.629-.776-1.222-1.231-1.761-5.587 10.987-11.389 21.856-16.993 32.825-8.058.01-16.124-.009-24.191.019 9.307-15.451 18.533-30.964 27.777-46.449-8.285-13.799-16.553-27.596-24.84-41.394Z"/>
  <path fill="#7FC5DE" d="M.886063 54.7282C30.9447 36.7148 60.9327 18.5362 90.9727.477525 91.0007 139.934 90.8821 279.391 91.0274 418.847c-13.724 8.349-27.5307 16.581-41.2747 24.912-16.516 9.839-32.852 19.995-49.469304 29.649.156-136.645.018667-273.301.064-409.9465.201333-2.8933-.656-6.0053.538667-8.7333Z"/>
  <path fill="#39A5CC" d="M284.234 89.953c-18.233 2.472-36.32 9.508-49.761 22.376-11.881 11.343-19.492 27.212-20.113 43.693 18.114-.028 36.229.082 54.333-.054.593-6.872 3.067-13.799 8.031-18.727 5.412-5.648 13.46-8.048 21.136-7.967 7.774-.19 16.316 1.324 22.018 7.036 4.18 4.034 5.731 10.03 5.759 15.678-.083 6.124.639 12.576-2.081 18.288-2.883 6.708-9.691 10.705-16.49 12.51-10.686 2.775-21.809 1.398-32.714 1.752-.01 12.904-.083 25.818.036 38.73 8.45.192 16.909-.21 25.35.32 9.182.812 18.791 3.065 25.908 9.281 5.832 5.019 8.523 12.912 8.268 20.468.191 8.185.146 16.992-4.517 24.091-4.937 7.913-14.337 11.726-23.307 12.502-10.01.84-20.942-.32-29.138-6.652-6.36-4.8-10.011-12.465-10.968-20.269-18.106-.008-36.202-.008-54.307-.008.931 8.157 2.875 16.233 6.205 23.753 5.759 13.534 16.262 24.895 29.138 31.958 15.705 8.87 33.965 11.973 51.805 12.485 21.264.573 43.219-3.276 61.635-14.356 13.068-7.765 24.082-19.72 28.664-34.412 3.44-10.293 2.198-21.244 2.372-31.893.156-10.979-4.179-21.902-11.754-29.823-9.92-10.76-23.945-16.764-38.062-19.639 15.64-3.996 31-13.396 38.026-28.444 3.815-7.848 2.802-16.745 2.911-25.177.109-9.235-2.345-18.516-7.3-26.328-7.812-12.483-20.716-20.969-34.377-25.8974-18.076-6.4693-37.743-7.684-56.706-5.2746ZM90.9729.476957C223.805.440957 356.637.476988 489.468.458321c8.177-.109333 16.27 3.358669 21.938 9.235999 5.32 5.56538 8.523 13.17598 8.459 20.90528.064 20.944-.009 41.896.036 62.8387.075 108.4307.075 216.8597 0 325.2897-142.951.248-285.912.009-428.8734.12-.1454-139.458-.0267-278.915-.0547-418.371043Z"/>
  <path fill="#36687F" d="M366.993 460.068c8.287 13.797 16.555 27.594 24.84 41.393-9.244 15.485-18.47 30.999-27.777 46.449 8.067-.028 16.133-.009 24.191-.018 5.604-10.97 11.406-21.839 16.993-32.826.455.539.865 1.132 1.231 1.762 5.229 10.368 10.605 20.66 15.824 31.037 8.258.045 16.526.045 24.784.008-9.252-16.079-18.488-32.176-27.704-48.283 8.266-13.205 16.653-26.345 24.93-39.541-7.737.009-15.477-.009-23.216 0-5.192 9.263-9.909 18.799-15.366 27.905-4.882-9.316-9.811-18.616-14.758-27.896-7.993-.009-15.977-.026-23.972.01Zm-89.913 87.805c7.291.037 14.583.019 21.875.019 1.669-6.398 3.212-12.831 4.917-19.219 8.76.064 17.531.036 26.291.019 1.825 6.388 3.624 12.776 5.374 19.181 7.447.047 14.903.009 22.359.037-8.743-29.229-17.521-58.458-26.428-87.624-9.655-.557-19.537-.064-29.283-.237-8.36 29.275-16.71 58.559-25.105 87.824Zm-101.877-87.824c-.028 29.284 0 58.559-.01 87.833 6.287.019 12.575.019 18.862-.009.074-19.537-.155-39.084.11-58.613 5.055 19.557 10.322 39.066 15.395 58.622 6.917.019 13.835.019 20.751-.009 4.69-18.717 9.957-37.296 14.318-56.085.566 4.717.31 9.473.364 14.208.02 13.972-.017 27.942.028 41.914 6.936-.028 13.88-.018 20.816-.009 0-29.284.018-58.559 0-87.833-8.897-.046-17.786.009-26.674-.028-6.232 23.525-12.411 47.06-18.68 70.577-5.776-23.553-11.754-47.071-17.667-70.585-9.208.054-18.415 0-27.613.017ZM519.901 93.4383c13.726-.036 27.459 0 41.183-.0173.009 167.363.029 334.725-.008 502.088-158.903-.009-317.807-.009-476.7092 0-5.6026.155-11.3893-.12-16.5453-2.547-10.7493-4.608-18.196-15.868-18.0587-27.586-.028-40.546 0-81.08-.0093-121.616 13.7427-8.331 27.5493-16.563 41.2747-24.912 142.9608-.111 285.9228.128 428.8728-.12.074-108.43.074-216.859 0-325.2897Z"/>
  <path fill="#36687F" d="M316.785 474.558c2.993 12.612 6.105 25.195 9.116 37.807-5.995 0-12 .028-17.995-.017 2.902-12.612 5.886-25.206 8.879-37.79Z"/>
</svg>
