<svg width="645" height="596" viewBox="0 0 645 596" fill="none" xmlns="http://www.w3.org/2000/svg">
<rect x="163" y="60" width="379" height="359" fill="white"/>
<path d="M592.609 115.252C601.236 115.418 608.442 115.484 614.755 115.517C631.331 115.616 644.668 129.038 644.734 145.618C645.18 252.5 645.032 588.419 644.536 595.957C466.66 596.254 278.109 594.915 100.234 595.081C89.6732 595.048 78.088 594.072 69.8909 586.65C63.743 580.882 58.9833 572.931 59.1651 564.252C59.1156 545.243 59.1486 526.234 59.1321 507.225C72.7169 498.133 86.5496 489.455 100.151 480.397C106.216 481.058 112.331 481.025 118.413 480.926C225.108 480.909 331.804 480.909 438.499 480.909C489.781 480.76 541.08 481.223 592.345 480.694C593.32 468.694 592.527 456.66 592.742 444.659C592.659 334.868 592.94 225.06 592.609 115.252Z" fill="url(#paint0_linear_171_7)"/>
<path d="M100.234 0.00617639C253.947 0.0227062 407.677 -0.0268766 561.391 0.0227129C577.438 0.237601 592.89 12.8168 594.196 29.1318C594.807 57.811 593.783 86.5564 594.692 115.252C595.039 225.06 595.402 468.71 594.427 480.71C542.947 481.223 491.434 480.777 439.937 480.925C332.779 480.925 225.637 480.925 118.479 480.942C112.364 481.041 106.216 481.074 100.134 480.413C100.349 320.288 100.167 160.131 100.234 0.00617639ZM311.393 99.896C301.18 129.286 293.032 159.387 283.53 189.008C265.797 246.813 248.064 304.618 230.314 362.423C228.678 367.035 227.29 371.746 226.496 376.589C243.287 376.853 260.095 376.969 276.886 376.539C283.331 354.307 289.876 332.107 296.09 309.808C296.701 307.841 297.495 305.94 298.288 304.056C330.118 304.139 361.981 303.643 393.811 304.321C401.463 328.454 408.735 352.736 416.849 376.705C434.004 376.804 451.192 376.92 468.346 376.606C458.166 342.604 446.581 309.032 435.987 275.162C416.899 216.828 398.505 158.263 379.301 99.9621C356.693 99.4001 334.018 99.5158 311.393 99.896Z" fill="url(#paint1_linear_171_7)"/>
<path d="M8.72602 61.7616C39.2506 41.1985 69.7917 20.6849 100.234 0.00610352C100.167 160.131 100.349 320.272 100.151 480.396C90.5821 487.008 43.6466 518.514 17.5843 535.656C10.0812 540.598 0.181796 535.143 0.165269 526.168C0.06611 376.853 0.363584 227.523 0 78.2088C0 71.6134 3.25573 65.4478 8.72602 61.7616Z" fill="url(#paint2_linear_171_7)"/>
<path d="M343.653 135.832C346.926 143.634 348.215 152.081 350.842 160.098C360.51 194.53 370.74 228.812 380.012 263.376C356.247 263.707 332.448 263.723 308.667 263.376C319.64 220.696 332.448 178.479 343.653 135.832Z" fill="#E51050"/>
<defs>
<linearGradient id="paint0_linear_171_7" x1="59.1321" y1="355.629" x2="644.999" y2="355.629" gradientUnits="userSpaceOnUse">
<stop stop-color="#9F1946"/>
<stop offset="1" stop-color="#B31537"/>
</linearGradient>
<linearGradient id="paint1_linear_171_7" x1="347.603" y1="480.992" x2="347.603" y2="0.0061925" gradientUnits="userSpaceOnUse">
<stop stop-color="#CA2049"/>
<stop offset="1" stop-color="#F43674"/>
</linearGradient>
<linearGradient id="paint2_linear_171_7" x1="0.0165266" y1="268.765" x2="100.234" y2="268.765" gradientUnits="userSpaceOnUse">
<stop offset="0.197" stop-color="#F4548B"/>
<stop offset="0.729" stop-color="#F4548B"/>
</linearGradient>
</defs>
</svg>
