<svg xmlns="http://www.w3.org/2000/svg" fill="none" viewBox="0 0 611 596">
  <g clip-path="url(#a)">
    <path fill="#001E36" d="M108.198 0h394.604C562.629 0 611 48.3932 611 108.248v379.504C611 547.607 562.629 596 502.802 596H108.198C48.3708 596 0 547.607 0 487.752V108.248C0 48.3932 48.3708 0 108.198 0Z"/>
    <path fill="#31A8FF" d="M137.475 417.964V155.877c0-1.783.764-2.802 2.546-2.802 4.328 0 8.401 0 14.256-.254 6.11-.255 12.475-.255 19.349-.51 6.874-.254 14.256-.254 22.149-.509 7.892-.255 15.529-.255 23.167-.255 20.875 0 38.187 2.547 52.444 7.896 12.729 4.33 24.44 11.461 34.114 20.885 8.147 8.151 14.511 18.084 18.585 29.036 3.818 10.698 5.855 21.65 5.855 33.111 0 21.905-5.092 39.988-15.275 54.252-10.183 14.263-24.44 24.96-40.988 31.073-17.312 6.368-36.405 8.66-57.281 8.66-6.11 0-10.184 0-12.729-.255-2.546-.254-6.11-.254-10.947-.254v81.759c.254 1.782-1.019 3.311-2.801 3.565H140.53c-2.037 0-3.055-1.018-3.055-3.311Zm55.499-215.731v85.579c3.564.255 6.874.509 9.929.509h13.493c9.929 0 19.857-1.528 29.277-4.584 8.147-2.292 15.275-7.132 20.876-13.499 5.346-6.368 7.892-15.028 7.892-26.234.254-7.896-1.782-15.792-5.856-22.669-4.328-6.622-10.438-11.716-17.82-14.518-9.42-3.82-19.603-5.349-30.041-5.094-6.619 0-12.475 0-17.312.255-5.092-.255-8.656 0-10.438.255ZM488.8 272.275c-7.638-4.075-15.784-6.877-24.44-8.66-9.42-2.037-18.839-3.311-28.513-3.311-5.092-.254-10.438.51-15.275 1.783-3.31.764-6.11 2.547-7.892 5.094-1.273 2.038-2.037 4.585-2.037 6.877s1.018 4.585 2.546 6.622c2.291 2.802 5.346 5.094 8.656 6.877 5.855 3.057 11.965 5.858 18.075 8.405 13.747 4.585 26.986 10.953 39.206 18.594 8.401 5.348 15.275 12.48 20.112 21.14 4.073 8.15 6.11 17.065 5.855 26.234.255 11.971-3.309 23.942-9.928 33.875-7.129 10.188-17.058 18.084-28.514 22.669-12.474 5.348-27.749 8.15-46.079 8.15-11.711 0-23.167-1.019-34.624-3.311-8.91-1.528-17.821-4.33-25.967-8.151-1.782-1.018-3.055-2.801-2.801-4.839v-44.318c0-.764.255-1.783 1.019-2.292.763-.51 1.527-.255 2.291.255 9.929 5.858 20.367 9.933 31.568 12.48 9.674 2.547 19.858 3.82 30.041 3.82 9.674 0 16.548-1.273 21.131-3.565 4.073-1.783 6.873-6.113 6.873-10.698 0-3.566-2.036-6.877-6.11-10.188-4.073-3.311-12.474-7.131-24.949-11.971-12.984-4.584-24.949-10.697-36.151-18.338-7.892-5.604-14.511-12.99-19.348-21.65-4.073-8.15-6.11-17.065-5.855-25.979 0-10.952 3.055-21.395 8.655-30.819 6.365-10.188 15.785-18.339 26.732-23.433 11.965-6.112 26.985-8.914 45.061-8.914 10.438 0 21.13.764 31.568 2.292 7.638 1.019 15.021 3.057 21.894 5.858 1.019.255 2.037 1.274 2.546 2.293.255 1.018.509 2.037.509 3.056v41.516c0 1.019-.509 2.038-1.273 2.547-2.291.51-3.564.51-4.582 0Z"/>
  </g>
  <defs>
    <clipPath id="a">
      <path fill="#fff" d="M0 0h611v596H0z"/>
    </clipPath>
  </defs>
</svg>
