<svg width="2000" height="2000" viewBox="0 0 2000 2000" fill="none" xmlns="http://www.w3.org/2000/svg">
<path fill-rule="evenodd" clip-rule="evenodd" d="M814.599 1006.8L740.624 894.476L676.828 991.345L625.983 1068.55L378.389 1444.49L342 1499.74H909.965L873.576 1444.49L845.872 1402.42L748.642 1254.79L726.326 1288.67L652.373 1400.96H694.451L747.365 1320.62L801.241 1402.42L828.945 1444.49H665.785H623.707H526.338L775.341 1075.04L999.804 1415.86L1055.05 1499.74H1658.85L1622.46 1444.49L1074.4 612.322L1000.42 500L927.716 610.4L888.79 669.504L849.865 728.607L834.529 751.894L810.939 787.711L884.914 900.033L1081.51 1198.54L1179.63 1347.53H1226.81L1105.1 1162.72L908.503 864.216L923.84 840.929L962.765 781.825L1001.69 722.722L1477.04 1444.49H1321.34H1102.86L814.599 1006.8Z" fill="#292D3A" stroke="#292D3A" stroke-width="0.666667"/>
</svg>
